<?xml version="1.0" encoding="UTF-8"?>
<svg xmlns="http://www.w3.org/2000/svg" viewBox="0 0 1411.1111 1411.1111">
  <circle fill="#fff1e5" cx="705.5556" cy="705.5556" r="705.5556" />
  <g transform="matrix(0.8432739,0,0,0.84327382,-186.90931,-186.90922)">
    <path
       fill="#0f766e"
       d="m 680.01383,466.10234 a 750,375 45 0 0 -59.36485,9.62525 750,375 45 0 0 -92.64603,52.27536 750,375 45 0 0 -52.27536,92.64603 750,375 45 0 0 108.26419,437.68392 375,750 45 0 1 58.87186,-89.13465 375,750 45 0 1 0,-5.2e-4 625,312.5 50.625 0 1 18.97404,-393.99611 625,312.5 50.625 0 1 35.26193,-21.85138 625,312.5 50.625 0 1 13.83998,-4.41161 625,312.5 50.625 0 1 27.69753,-8.65477 625,312.5 50.625 0 1 18.80868,-1.71256 625,312.5 50.625 0 1 28.28561,-2.34353 625,312.5 50.625 0 1 22.15885,2.0283 625,312.5 50.625 0 1 29.66796,2.9962 625,312.5 50.625 0 1 24.67911,6.06992 625,312.5 50.625 0 1 30.98157,7.94628 625,312.5 50.625 0 1 26.5374,10.15235 625,312.5 50.625 0 1 31.9872,12.61009 625,312.5 50.625 0 1 27.81484,14.14074 625,312.5 50.625 0 1 32.55666,16.9726 625,312.5 50.625 0 1 3.4039,1.77457 375,750 45 0 1 42.8145,-26.92704 750,375 45 0 0 -81.79555,-44.54198 750,375 45 0 0 -5.2e-4,0 750,375 45 0 0 -296.5235,-73.34746 z m -37.15019,503.09591 a 375,750 45 0 0 -58.87186,89.13465 750,375 45 0 0 26.92756,42.8154 312.5,625 50.625 0 0 0,6e-4 750,375 45 0 0 54.41683,76.5673 750,375 45 0 0 50.07705,61.096 750,375 45 0 0 11.01845,13.4426 750,375 45 0 0 5.2e-4,5e-4 750,375 45 0 0 66.73649,71.2432 750,375 45 0 0 56.62548,53.7461 750,375 45 0 0 58.88943,50.2838 750,375 45 0 0 5.2e-4,0 750,375 45 0 0 60.51414,46.2752 750,375 45 0 0 5.1e-4,0 312.5,625 50.625 0 0 50.39024,-22.0891 625,312.5 50.625 0 1 -202.82124,-195.1333 625,312.5 50.625 0 1 -48.97893,-64.146 625,312.5 50.625 0 1 -14.36036,-21.0074 625,312.5 50.625 0 1 -30.01936,-45.7311 625,312.5 50.625 0 1 -14.74018,-24.6336 625,312.5 50.625 0 1 -24.53287,-44.234 625,312.5 50.625 0 1 -12.57494,-24.4115 625,312.5 50.625 0 1 -6.6089,-12.8291 625,312.5 50.625 0 1 -22.08858,-50.39025 z" />
    <path
       fill="#4f46e5"
       d="m 583.99178,1058.3334 a 375,750 45 0 0 -108.26419,437.6843 375,750 45 0 0 52.27536,92.6461 375,750 45 0 0 40.55205,30.6782 375,750 45 0 0 16.27136,7.0099 375,750 45 0 0 33.14061,13.4953 375,750 45 0 0 22.58209,4.3186 375,750 45 0 0 34.79064,5.6405 375,750 45 0 0 27.04899,0.187 375,750 45 0 0 37.25509,-0.9508 375,750 45 0 0 30.49943,-4.3909 375,750 45 0 0 39.5671,-7.0844 375,750 45 0 0 33.14733,-9.0749 375,750 45 0 0 41.42124,-12.9072 375,750 45 0 0 35.04334,-13.6793 375,750 45 0 0 42.67647,-18.4149 375,750 45 0 0 36.19572,-18.0671 375,750 45 0 0 43.29139,-23.5742 375,750 45 0 0 57.9489,-35.0248 375,750 45 0 0 1.2129,-0.7627 375,750 45 0 0 45.5295,-32.3164 375,750 45 0 0 31.2838,-22.2338 375,750 45 0 0 50.0166,-40.9675 375,750 45 0 0 24.6471,-20.2019 375,750 45 0 0 71.3739,-66.844 375,750 45 0 0 61.124,-65.2657 375,750 45 0 0 17.9518,-21.0251 375,750 45 0 0 39.2457,-47.9144 375,750 45 0 0 18.404,-24.0672 375,750 45 0 0 13.2075,-18.6072 625,312.5 50.625 0 0 -21.7165,-49.5406 312.5,625 50.625 0 1 -14.8347,18.6469 312.5,625 50.625 0 1 -18.5105,23.2673 312.5,625 50.625 0 1 -29.9713,34.4878 312.5,625 50.625 0 1 -19.5327,21.5827 312.5,625 50.625 0 1 -36.2949,36.3642 312.5,625 50.625 0 1 -17.8992,17.5245 312.5,625 50.625 0 1 -58.09,50.9473 312.5,625 50.625 0 1 -57.2053,44.2345 312.5,625 50.625 0 1 -31.7443,21.6999 312.5,625 50.625 0 1 -27.3544,18.6991 312.5,625 50.625 0 1 -5e-4,6e-4 312.5,625 50.625 0 1 -60.1979,36.021 312.5,625 50.625 0 1 -60.4903,31.1604 312.5,625 50.625 0 1 -50.39024,22.0891 312.5,625 50.625 0 1 -11.16056,3.9687 312.5,625 50.625 0 1 -28.50265,10.1358 312.5,625 50.625 0 1 -38.44882,12.282 312.5,625 50.625 0 1 -27.94041,7.1675 312.5,625 50.625 0 1 -36.14353,7.4735 312.5,625 50.625 0 1 -26.50071,3.9082 312.5,625 50.625 0 1 -33.65221,2.6634 312.5,625 50.625 0 1 -24.30084,0.5514 312.5,625 50.625 0 1 -30.93661,-2.252 312.5,625 50.625 0 1 -21.39249,-2.7079 312.5,625 50.625 0 1 -28.18175,-7.4641 312.5,625 50.625 0 1 -17.6444,-5.5568 312.5,625 50.625 0 1 -26.07127,-13.7351 312.5,625 50.625 0 1 -12.48968,-7.1106 312.5,625 50.625 0 1 -30.63121,-28.2986 312.5,625 50.625 0 1 -39.0679,-125.0337 312.5,625 50.625 0 1 43.01392,-167.7029 312.5,625 50.625 0 1 31.7717,-60.9441 750,375 45 0 1 -26.92756,-42.8149 z" />
    <path
       fill="#0f766e"
       d="m 1147.4685,642.86364 a 312.5,625 50.625 0 0 -50.3897,22.08858 625,312.5 50.625 0 1 18.6449,14.8332 625,312.5 50.625 0 1 23.2704,18.51308 625,312.5 50.625 0 1 34.479,29.96355 625,312.5 50.625 0 1 21.5945,19.54351 625,312.5 50.625 0 1 36.3503,36.28099 625,312.5 50.625 0 1 17.5343,17.9095 625,312.5 50.625 0 1 50.9468,58.08896 625,312.5 50.625 0 1 0,5.2e-4 625,312.5 50.625 0 1 47.0333,61.2991 625,312.5 50.625 0 1 14.1505,20.70003 625,312.5 50.625 0 1 28.4872,42.72194 625,312.5 50.625 0 1 14.9562,24.9948 625,312.5 50.625 0 1 22.6601,39.6591 625,312.5 50.625 0 1 13.6183,26.4372 625,312.5 50.625 0 1 10.9104,21.1801 312.5,625 50.625 0 1 0,5e-4 625,312.5 50.625 0 1 8.9323,20.376 625,312.5 50.625 0 1 7.9824,18.2108 625,312.5 50.625 0 1 5.1739,11.8029 375,750 45 0 1 0,5e-4 625,312.5 50.625 0 1 9.018,25.3587 625,312.5 50.625 0 1 10.743,30.21 625,312.5 50.625 0 1 9.6553,34.3534 625,312.5 50.625 0 1 7.3835,28.7843 625,312.5 50.625 0 1 5.6162,32.907 625,312.5 50.625 0 1 3.9527,26.8056 625,312.5 50.625 0 1 1.3912,31.0173 625,312.5 50.625 0 1 0.5508,24.29 625,312.5 50.625 0 1 -3.0385,28.808 625,312.5 50.625 0 1 -2.68,21.1739 625,312.5 50.625 0 1 -7.8269,26.5049 625,312.5 50.625 0 1 -5.4581,17.3312 625,312.5 50.625 0 1 -13.6766,24.7442 625,312.5 50.625 0 1 -6.9609,12.2256 625,312.5 50.625 0 1 -27.6443,29.4825 625,312.5 50.625 0 1 -35.5461,22.0271 625,312.5 50.625 0 1 -41.9246,13.0999 625,312.5 50.625 0 1 -215.2654,-39.073 625,312.5 50.625 0 1 -60.9446,-31.7712 375,750 45 0 1 -42.8149,26.927 750,375 45 0 0 437.6843,108.2642 750,375 45 0 0 92.6461,-52.2753 750,375 45 0 0 52.2753,-92.6461 750,375 45 0 0 -29.1021,-275.657 750,375 45 0 0 -79.1621,-162.0268 750,375 45 0 0 0,-5e-4 750,375 45 0 0 -35.2097,-54.469 750,375 45 0 0 -31.6425,-44.5224 750,375 45 0 0 -20.7864,-28.07064 750,375 45 0 0 -38.9743,-47.55007 750,375 45 0 0 -19.3074,-23.02495 750,375 45 0 0 -63.2561,-67.52766 750,375 45 0 0 -56.6254,-53.74659 750,375 45 0 0 -6e-4,0 750,375 45 0 0 -50.2832,-42.93536 750,375 45 0 0 -8.6062,-7.34839 750,375 45 0 0 -60.5146,-46.2747 z" />
    <path
       fill="#4f46e5"
       d="m 1436.6529,466.10234 a 375,750 45 0 0 -378.3195,117.88944 375,750 45 0 0 -54.468,35.20922 375,750 45 0 0 -44.51565,31.63735 375,750 45 0 0 -28.08459,20.79718 375,750 45 0 0 -47.51596,38.94594 375,750 45 0 0 -23.05803,19.33526 375,750 45 0 0 -67.52301,63.25143 375,750 45 0 0 -61.12391,65.26579 375,750 45 0 0 -17.94775,21.01939 375,750 45 0 0 -39.25341,47.92472 375,750 45 0 0 -18.39991,24.0621 375,750 45 0 0 -13.20747,18.60713 625,312.5 50.625 0 0 21.71651,49.54111 312.5,625 50.625 0 1 14.82803,-18.6386 312.5,625 50.625 0 1 18.52187,-23.28179 312.5,625 50.625 0 1 29.96303,-34.478 312.5,625 50.625 0 1 19.53627,-21.58628 312.5,625 50.625 0 1 36.29495,-36.36418 312.5,625 50.625 0 1 17.89916,-17.52452 312.5,625 50.625 0 1 58.09,-50.94727 312.5,625 50.625 0 1 116.30452,-84.63411 312.5,625 50.625 0 1 120.68825,-67.18143 312.5,625 50.625 0 1 5e-4,0 312.5,625 50.625 0 1 50.3897,-22.08858 312.5,625 50.625 0 1 286.4672,-42.24341 312.5,625 50.625 0 1 5e-4,0 312.5,625 50.625 0 1 107.5289,61.21745 312.5,625 50.625 0 1 21.8519,35.26245 312.5,625 50.625 0 1 4.4059,13.82189 312.5,625 50.625 0 1 8.6599,27.7151 312.5,625 50.625 0 1 1.7126,18.80868 312.5,625 50.625 0 1 2.3435,28.28561 312.5,625 50.625 0 1 -2.0283,22.15885 312.5,625 50.625 0 1 -2.9962,29.66796 312.5,625 50.625 0 1 -6.0714,24.6848 312.5,625 50.625 0 1 -7.9442,30.97433 312.5,625 50.625 0 1 -10.1565,26.54774 312.5,625 50.625 0 1 -12.6065,31.97841 312.5,625 50.625 0 1 -14.1464,27.82569 312.5,625 50.625 0 1 -16.9654,32.54271 312.5,625 50.625 0 1 -1.7761,3.407 750,375 45 0 1 26.4128,41.997 375,750 45 0 0 9.6889,-16.0306 375,750 45 0 0 23.5763,-43.29451 375,750 45 0 0 18.063,-36.18849 375,750 45 0 0 18.4175,-42.68215 375,750 45 0 0 13.6787,-35.04127 375,750 45 0 0 12.9072,-41.42124 375,750 45 0 0 9.0749,-33.14733 375,750 45 0 0 7.0844,-39.5671 375,750 45 0 0 4.3909,-30.49943 375,750 45 0 0 0.9508,-37.26284 375,750 45 0 0 -0.1865,-27.03814 375,750 45 0 0 -5.6426,-34.80408 375,750 45 0 0 -4.317,-22.57072 375,750 45 0 0 -13.4969,-33.14526 375,750 45 0 0 -7.0083,-16.26774 375,750 45 0 0 -30.6782,-40.55205 375,750 45 0 0 -92.6461,-52.27536 375,750 45 0 0 -59.3648,-9.62525 z" />
    <circle fill="#334155" cx="1058.3334" cy="1058.3334" r="150" />
  </g>
</svg>
